<svg xmlns="http://www.w3.org/2000/svg" width="18" height="23" viewBox="0 0 18 23"><g><g><g><g><path fill="#fff" d="M14.767 12.298a4.949 4.949 0 0 1 2.357-4.152 5.066 5.066 0 0 0-3.991-2.158c-1.68-.176-3.307 1.005-4.163 1.005-.872 0-2.19-.988-3.609-.958A5.315 5.315 0 0 0 .888 8.762c-1.934 3.349-.491 8.27 1.362 10.977.926 1.325 2.01 2.805 3.427 2.753 1.387-.058 1.905-.885 3.58-.885 1.658 0 2.144.885 3.59.851 1.489-.024 2.427-1.33 3.321-2.669a10.962 10.962 0 0 0 1.519-3.092 4.782 4.782 0 0 1-2.92-4.4z"/></g><g><path fill="#fff" d="M12.037 4.21A4.873 4.873 0 0 0 13.15.72a4.957 4.957 0 0 0-3.207 1.66A4.636 4.636 0 0 0 8.8 5.74a4.1 4.1 0 0 0 3.237-1.53z"/></g></g></g></g></svg>