<svg xmlns="http://www.w3.org/2000/svg" width="19" height="20" viewBox="0 0 19 20"><g><g opacity=".6"><path fill="#14b45c" d="M13.419 6.646c-.61 0-1.027-.21-1.29-.417-.868-.681-.886-1.903-.885-2.04a.56.56 0 0 1 .565-.55h.003a.559.559 0 0 1 .562.554c.001.228.087.883.467 1.178.226.176.563.217 1.002.12a.566.566 0 0 1 .676.417.552.552 0 0 1-.427.66c-.247.054-.47.078-.673.078zm-1.61 9.163c0-2.86 2.88-4.162 3.003-4.216a.57.57 0 0 1 .748.276.547.547 0 0 1-.282.73c-.026.01-2.34 1.07-2.34 3.21a.559.559 0 0 1-.564.552.559.559 0 0 1-.566-.552zm.434-6.16c.712-.823 2.631-1.99 5.023-.89.39-.53.604-1.157.604-1.807 0-1.14-.65-2.19-1.696-2.74a.56.56 0 0 1-.201-.179 5.656 5.656 0 0 0-1.339-1.37 5.777 5.777 0 0 0-1.852-.893.572.572 0 0 1-.175-.083 3.201 3.201 0 0 0-1.851-.583.733.733 0 0 0-.488.198.695.695 0 0 0-.203.477v16.46c0 .367.307.667.684.667l1.155-.042a2.257 2.257 0 0 0 1.71-1.303c.08-.18.25-.304.449-.329 1.14-.139 2-1.085 2-2.2 0-.204-.037-.415-.117-.664a.55.55 0 0 1 .36-.689c.935-.305 1.564-1.151 1.564-2.105 0-.633-.287-1.237-.787-1.666-2.377-1.305-3.914.383-3.979.456a.572.572 0 0 1-.795.06.542.542 0 0 1-.066-.776zm-3.309 8.59V1.778c0-.047-.01-.289-.202-.477a.731.731 0 0 0-.488-.198 3.2 3.2 0 0 0-1.851.583.567.567 0 0 1-.175.083 5.778 5.778 0 0 0-1.852.893c-.524.38-.974.841-1.339 1.37a.56.56 0 0 1-.201.179c-1.046.55-1.696 1.6-1.696 2.74 0 .65.214 1.278.604 1.807 2.391-1.1 4.311.068 5.022.89a.543.543 0 0 1-.066.778.57.57 0 0 1-.795-.063c-.068-.077-1.603-1.76-3.978-.455a2.198 2.198 0 0 0-.787 1.666c0 .953.629 1.799 1.564 2.104a.55.55 0 0 1 .36.69c-.08.248-.117.46-.117.663 0 1.115.86 2.061 2 2.2a.564.564 0 0 1 .448.329 2.257 2.257 0 0 0 1.711 1.304l1.176.042c.356 0 .663-.3.663-.669zm9.242-8.825c.529.6.824 1.362.824 2.154 0 1.257-.727 2.388-1.853 2.952.031.173.046.34.046.504 0 1.567-1.132 2.911-2.68 3.243a3.39 3.39 0 0 1-2.466 1.683.605.605 0 0 1-.067.007L10.77 20h-.001a1.86 1.86 0 0 1-1.268-.491 1.829 1.829 0 0 1-1.25.491l-1.231-.043a.605.605 0 0 1-.066-.007 3.39 3.39 0 0 1-2.467-1.683c-1.548-.332-2.68-1.676-2.68-3.243 0-.164.015-.331.046-.504C.727 13.956 0 12.825 0 11.568c0-.792.295-1.553.824-2.154A4.124 4.124 0 0 1 0 6.95c0-1.502.827-2.886 2.168-3.644a6.764 6.764 0 0 1 1.524-1.53A6.915 6.915 0 0 1 5.815.736 4.345 4.345 0 0 1 8.245 0c.221 0 .78.051 1.255.494A1.874 1.874 0 0 1 10.756 0c.873 0 1.71.254 2.43.735.766.224 1.48.574 2.122 1.04.59.429 1.102.943 1.524 1.53C18.173 4.063 19 5.447 19 6.949c0 .888-.29 1.747-.824 2.465zM7.191 15.81a.559.559 0 0 1-.565.552.559.559 0 0 1-.565-.552c0-2.155-2.314-3.2-2.338-3.21a.547.547 0 0 1-.283-.73.57.57 0 0 1 .748-.276c.123.054 3.003 1.355 3.003 4.216zm.565-11.62c0 .137-.018 1.359-.886 2.04-.263.206-.68.417-1.29.417-.202 0-.426-.024-.672-.078a.552.552 0 0 1-.427-.66.566.566 0 0 1 .676-.417c.446.099.775.059 1.004-.122.383-.3.466-.965.465-1.175a.559.559 0 0 1 .562-.554h.003c.31 0 .564.245.565.549z"/></g></g></svg>