<svg xmlns="http://www.w3.org/2000/svg" width="21" height="20" viewBox="0 0 21 20"><g><g><path fill="#14b45c" d="M15.898 18.273a1.07 1.07 0 0 0 1.059-1.079 1.082 1.082 0 0 0-.652-1 1.043 1.043 0 0 0-1.155.232c-.304.31-.395.775-.231 1.179s.55.668.979.668zm4.915-14.698a.876.876 0 0 1 .165.736l-1.558 6.858c-.338 1.512-1.659 2.582-3.177 2.574h-6.9c-1.508.004-2.82-1.053-3.167-2.552L4.084 2.197a.603.603 0 0 0-.586-.473H.844a.841.841 0 0 1-.73-.43.878.878 0 0 1 0-.863A.841.841 0 0 1 .843 0H3.48C4.54-.003 5.463.741 5.708 1.796l.342 1.458h14.093a.838.838 0 0 1 .67.32zm-1.724 1.403H6.456l1.363 5.802a1.57 1.57 0 0 0 1.524 1.231h6.9a1.568 1.568 0 0 0 1.527-1.231zm-10.047 9.41a2.714 2.714 0 0 1 1.943.82c.516.527.806 1.241.806 1.986 0 1.549-1.226 2.805-2.74 2.806-1.514.001-2.742-1.252-2.745-2.8-.003-1.55 1.222-2.807 2.735-2.812zm.004 3.885a1.07 1.07 0 0 0 1.06-1.079 1.082 1.082 0 0 0-.653-1 1.043 1.043 0 0 0-1.155.232c-.303.31-.394.775-.23 1.179s.55.668.978.668zm9.6-1.079c0 1.55-1.23 2.806-2.748 2.806-1.518 0-2.748-1.256-2.748-2.806s1.23-2.806 2.748-2.806c1.517.002 2.746 1.257 2.747 2.806z"/></g></g></svg>