<svg xmlns="http://www.w3.org/2000/svg" width="20" height="20" viewBox="0 0 20 20"><g><g opacity=".9"><path fill="#fff" d="M9.977 0c5.487 0 9.976 4.49 9.976 9.977s-4.49 9.976-9.976 9.976C4.49 19.953 0 15.463 0 9.977 0 4.49 4.49 0 9.977 0zm3.928 8.293v1.122h-1.122v1.123h1.122v1.122h1.122v-1.122h1.123V9.415h-1.123V8.293zm-3.367 4.552c.561-.561.873-1.372.935-2.182V9.79l-.062-.312H7.857v1.247H10.1v.125c-.062.374-.311.748-.56.997-.874.998-2.557.998-3.493 0-.997-.997-.935-2.68 0-3.616.81-.81 2.058-.935 2.931-.374l.374.25.998-.999-.624-.436-.561-.312c-1.434-.561-3.055-.312-4.178.81-1.559 1.497-1.559 4.116-.062 5.613 1.496 1.496 4.115 1.496 5.612.062z"/></g></g></svg>