<svg xmlns="http://www.w3.org/2000/svg" width="20" height="20" viewBox="0 0 20 20"><g><g opacity=".9"><path fill="#fff" d="M0 9.929C0 4.445 4.445 0 9.929 0c5.483 0 9.929 4.445 9.929 9.929 0 5.483-4.446 9.929-9.93 9.929C4.446 19.858 0 15.412 0 9.928zm14.647-2.42a2.38 2.38 0 0 0 1.044-1.313 4.75 4.75 0 0 1-1.507.576 2.374 2.374 0 0 0-4.044 2.165 6.737 6.737 0 0 1-4.892-2.48 2.373 2.373 0 0 0 .734 3.169 2.357 2.357 0 0 1-1.075-.298v.03c0 1.15.819 2.11 1.904 2.327a2.365 2.365 0 0 1-1.072.041 2.376 2.376 0 0 0 2.217 1.649 4.762 4.762 0 0 1-3.513.982 6.713 6.713 0 0 0 3.638 1.067c4.365 0 6.752-3.617 6.752-6.753a6.79 6.79 0 0 0-.007-.307 4.813 4.813 0 0 0 1.185-1.228 4.735 4.735 0 0 1-1.364.373z"/></g></g></svg>