<svg xmlns="http://www.w3.org/2000/svg" width="23" height="26" viewBox="0 0 23 26"><defs><linearGradient id="hygod" x1="14.83" x2="-7.92" y1="15.29" y2="38.05" gradientUnits="userSpaceOnUse"><stop offset="0" stop-color="#ff3a44"/><stop offset="1" stop-color="#c31162"/></linearGradient><clipPath id="hygoa"><path d="M.433.543C.142.851-.03 1.329-.03 1.948v22.116c0 .62.172 1.097.463 1.404l.073.073 12.39-12.389v-.292L.506.47z"/></clipPath><clipPath id="hygob"><path d="M12.9 12.851v.292l4.129 4.131.094-.052 4.893-2.78c1.397-.795 1.397-2.095 0-2.889l-4.893-2.78-.093-.053z"/></clipPath><clipPath id="hygoc"><path d="M.44 25.462c.46.488 1.221.549 2.078.062l14.608-8.3L12.903 13z"/></clipPath><clipPath id="hygoe"><path d="M.44.538l12.463 12.463 4.223-4.224L2.518.477C2.116.248 1.735.14 1.397.14 1.013.14.684.279.44.538"/></clipPath></defs><g><g><g/><g clip-path="url(#hygoa)"><path fill="#00d2ff" d="M.433.543C.142.851-.03 1.329-.03 1.948v22.116c0 .62.172 1.097.463 1.404l.073.073 12.39-12.389v-.292L.506.47z"/></g></g><g><g/><g clip-path="url(#hygob)"><path fill="#ffc802" d="M12.9 12.851v.292l4.129 4.131.094-.052 4.893-2.78c1.397-.795 1.397-2.095 0-2.889l-4.893-2.78-.093-.053z"/></g></g><g><g/><g clip-path="url(#hygoc)"><path fill="url(#hygod)" d="M.44 25.462c.46.488 1.221.549 2.078.062l14.608-8.3L12.903 13z"/></g></g><g><g/><g clip-path="url(#hygoe)"><path fill="#00f076" d="M.44.538l12.463 12.463 4.223-4.224L2.518.477C2.116.248 1.735.14 1.397.14 1.013.14.684.279.44.538"/></g></g><g><g><path d="M17.033 17.13L2.518 25.378c-.812.46-1.538.43-2.004.01l-.074.075.073.072.001-.001c.466.42 1.192.451 2.004-.01l14.608-8.301z"/></g><g><path d="M.433 25.315c-.291-.308-.463-.786-.463-1.405v.146c0 .619.172 1.097.463 1.405l.074-.074z"/></g><g><path d="M22.016 14.297L17.03 17.13l.093.093 4.893-2.78c.699-.397 1.048-.92 1.048-1.443-.059.473-.414.937-1.048 1.297"/></g><g><path fill="#fff" d="M2.511.622l19.501 11.08c.634.36.989.824 1.048 1.298.001-.523-.349-1.047-1.048-1.444L2.511.476C1.113-.318-.03.342-.03 1.942v.146c0-1.6 1.143-2.26 2.541-1.466"/></g></g></g></svg>