<svg xmlns="http://www.w3.org/2000/svg" width="20" height="20" viewBox="0 0 20 20"><g><g opacity=".6"><path fill="#d23737" d="M1.276 8.13H8.13V1.276A7.45 7.45 0 0 0 1.276 8.13zm-.65 1.25A.625.625 0 0 1 0 8.755 8.714 8.714 0 0 1 8.755 0c.345 0 .625.28.625.625v8.13c0 .345-.28.625-.625.625zm1.199 1.752a.625.625 0 0 1 1.25 0c0 4.423 3.232 7.618 7.654 7.618a8.031 8.031 0 0 0 8.021-8.021c0-4.423-3.085-7.654-7.508-7.654a.625.625 0 1 1 0-1.25c5.112 0 8.758 3.792 8.758 8.904A9.281 9.281 0 0 1 10.73 20c-5.113 0-8.905-3.756-8.905-8.868z"/></g></g></svg>