<svg xmlns="http://www.w3.org/2000/svg" width="20" height="20" viewBox="0 0 20 20"><g><g opacity=".6"><path fill="#3774d2" d="M10.005 1.44a8.527 8.527 0 0 1 8.54 8.535c0 4.722-3.815 8.56-8.54 8.56S1.465 14.697 1.465 10s3.815-8.56 8.54-8.56zM4.849 15.923l2.83-1.867c.254-.177.557-.303.885-.328h.177a.732.732 0 0 0 .733-.58.761.761 0 0 0-.404-.833 2.828 2.828 0 0 1-1.668-2.574V7.118a2.824 2.824 0 0 1 2.83-2.826 2.802 2.802 0 0 1 2.806 2.826v2.624a2.8 2.8 0 0 1-1.744 2.6.702.702 0 0 0-.43.807.78.78 0 0 0 .708.605h.177c.227.05.43.152.606.278l2.83 1.842c.38-.328.709-.681 1.012-1.085l-3.033-1.968a4.208 4.208 0 0 0 1.314-3.079V7.118a4.29 4.29 0 0 0-4.296-4.29 4.29 4.29 0 0 0-4.296 4.29v2.624c0 1.11.43 2.17 1.187 2.952l-.227.152-3.033 2.019c.329.378.657.731 1.036 1.06zM10 20c5.505 0 10-4.495 10-10S15.505 0 10 0 0 4.47 0 10c0 5.505 4.495 10 10 10z"/></g></g></svg>