<svg xmlns="http://www.w3.org/2000/svg" width="100" height="26" viewBox="0 0 100 26"><g><g><g><g><g><path fill="#fff" d="M14.767 12.298a4.949 4.949 0 0 1 2.357-4.152 5.066 5.066 0 0 0-3.991-2.158c-1.68-.176-3.307 1.005-4.163 1.005-.872 0-2.19-.988-3.609-.958A5.315 5.315 0 0 0 .888 8.762c-1.934 3.349-.491 8.27 1.362 10.977.926 1.325 2.01 2.805 3.427 2.753 1.387-.058 1.905-.885 3.58-.885 1.658 0 2.144.885 3.59.851 1.489-.024 2.427-1.33 3.321-2.669a10.962 10.962 0 0 0 1.519-3.092 4.782 4.782 0 0 1-2.92-4.4z"/></g><g><path fill="#fff" d="M12.037 4.21A4.873 4.873 0 0 0 13.15.72a4.957 4.957 0 0 0-3.207 1.66A4.636 4.636 0 0 0 8.8 5.74a4.1 4.1 0 0 0 3.237-1.53z"/></g></g></g><g><g><path fill="#fff" d="M29.912 12.145h.052l1.85 5.438h-3.752zm3.529 10.353h2.039L30.996 10.08h-2.083L24.43 22.498h2.005l1.137-3.356h4.733z"/></g><g><path fill="#fff" d="M40.856 21.023c-1.42 0-2.375-1.222-2.375-3.048 0-1.81.955-3.04 2.375-3.04 1.445 0 2.392 1.205 2.392 3.04 0 1.851-.947 3.048-2.392 3.048zm.49-7.671a3.212 3.212 0 0 0-2.883 1.6h-.034v-1.506H36.63v12.05h1.858V21.01h.043a3.07 3.07 0 0 0 2.849 1.584c2.272 0 3.778-1.808 3.778-4.621 0-2.806-1.514-4.622-3.812-4.622z"/></g><g><path fill="#fff" d="M53.22 17.975c0 1.851-.948 3.048-2.394 3.048-1.422 0-2.378-1.222-2.378-3.048 0-1.81.956-3.04 2.378-3.04 1.446 0 2.394 1.205 2.394 3.04zm-1.904-4.623a3.212 3.212 0 0 0-2.883 1.6h-.034v-1.506H46.6v12.05h1.858V21.01h.043a3.07 3.07 0 0 0 2.849 1.584c2.272 0 3.778-1.808 3.778-4.621 0-2.806-1.514-4.622-3.812-4.622z"/></g><g><path fill="#fff" d="M61.712 19.035c.138 1.232 1.334 2.04 2.97 2.04 1.566 0 2.692-.808 2.692-1.919 0-.964-.68-1.54-2.289-1.936l-1.609-.388c-2.28-.55-3.339-1.617-3.339-3.348 0-2.142 1.867-3.614 4.519-3.614 2.624 0 4.423 1.472 4.483 3.614h-1.876c-.112-1.239-1.137-1.987-2.634-1.987-1.497 0-2.521.757-2.521 1.858 0 .878.654 1.395 2.255 1.79l1.368.336c2.548.603 3.606 1.626 3.606 3.443 0 2.323-1.85 3.778-4.794 3.778-2.754 0-4.613-1.42-4.733-3.667z"/></g><g><path fill="#fff" d="M73.344 11.3v2.143h1.721v1.471h-1.721v4.991c0 .776.344 1.137 1.101 1.137.205-.003.409-.018.611-.043v1.463c-.34.064-.686.092-1.032.086-1.833 0-2.548-.688-2.548-2.444v-5.19H70.16v-1.471h1.316V11.3z"/></g><g><path fill="#fff" d="M82.777 17.974c0 1.965-.898 3.111-2.408 3.111-1.51 0-2.408-1.146-2.408-3.111 0-1.949.898-3.113 2.408-3.113 1.51 0 2.409 1.155 2.409 3.113zm-2.413 4.633c2.634 0 4.295-1.782 4.295-4.638 0-2.849-1.67-4.639-4.295-4.639-2.616 0-4.294 1.79-4.294 4.639 0 2.856 1.661 4.638 4.294 4.638z"/></g><g><path fill="#fff" d="M86.19 13.446h1.772v1.541h.043a2.16 2.16 0 0 1 2.178-1.635c.214-.001.428.022.637.069v1.738a2.598 2.598 0 0 0-.835-.112 1.873 1.873 0 0 0-1.937 2.083v5.37H86.19z"/></g><g><path fill="#fff" d="M93.105 17.124a2.277 2.277 0 0 1 .674-1.622c.433-.43 1.02-.67 1.631-.666a2.182 2.182 0 0 1 1.613.66c.421.435.642 1.025.608 1.628zm4.517 2.712a2.048 2.048 0 0 1-2.09 1.273 2.358 2.358 0 0 1-2.436-2.564v-.112h6.395v-.637c0-2.745-1.576-4.466-4.08-4.466-2.547 0-4.191 1.842-4.191 4.682 0 2.83 1.635 4.595 4.269 4.595 2.047 0 3.648-1.128 3.898-2.771z"/></g></g></g><g><g><g><path fill="#fff" d="M26.597 1.571h1.125c.56-.03 1.106.19 1.487.602.38.411.557.971.48 1.526a1.867 1.867 0 0 1-.473 1.536c-.381.415-.93.637-1.494.603h-1.125zM25.67.727v5.967h2.155c1.778 0 2.808-1.096 2.808-3.002A2.64 2.64 0 0 0 27.825.727z"/></g><g><path fill="#fff" d="M35.003 4.446c0 .981-.437 1.552-1.203 1.552-.77 0-1.202-.567-1.202-1.552 0-.977.433-1.548 1.202-1.548.766 0 1.203.571 1.203 1.548zm-2.325 2.02a2.134 2.134 0 0 0 3.25-2.02 2.133 2.133 0 1 0-4.248 0c-.079.808.308 1.591.998 2.02z"/></g><g><path fill="#fff" d="M41.574 6.693h-.922l-.93-3.316h-.07l-.928 3.316h-.913L36.57 2.19h.901l.807 3.436h.066l.926-3.436h.853l.926 3.436h.07l.803-3.436h.888z"/></g><g><path fill="#fff" d="M43.85 2.191h.855v.716h.067c.23-.527.77-.85 1.344-.803a1.465 1.465 0 0 1 1.558 1.675v2.915h-.888V4.002c0-.723-.315-1.083-.972-1.083a1.033 1.033 0 0 0-1.075 1.141v2.634h-.889z"/></g><g><path fill="#fff" d="M49.09.44h.889V6.7h-.889z"/></g><g><path fill="#fff" d="M54.543 4.446c0 .981-.437 1.552-1.203 1.552-.77 0-1.202-.567-1.202-1.552 0-.977.433-1.548 1.202-1.548.766 0 1.203.571 1.203 1.548zm-3.323 0a2.134 2.134 0 1 0 4.248 0 2.133 2.133 0 1 0-4.248 0z"/></g><g><path fill="#fff" d="M58.92 5.773c-.22.184-.505.272-.791.243-.484 0-.835-.234-.835-.636 0-.394.28-.604.9-.645l1.1-.07v.374c-.019.285-.154.55-.374.734zm-2.52-.347a1.36 1.36 0 0 0 1.501 1.348 1.515 1.515 0 0 0 1.353-.707h.07V6.7h.855V3.623c0-.951-.636-1.513-1.765-1.513-1.022 0-1.75.496-1.84 1.27h.86c.099-.319.443-.501.939-.501.607 0 .922.269.922.744v.389l-1.22.07c-1.071.067-1.675.534-1.675 1.344z"/></g><g><path fill="#fff" d="M62.266 4.446c0-.949.454-1.528 1.2-1.528.742 0 1.21.592 1.21 1.532 0 .944-.463 1.528-1.21 1.528-.751 0-1.2-.575-1.2-1.532zm.953 2.329a1.563 1.563 0 0 0 1.414-.786h.07v.712h.852V.44h-.889v2.473H64.6a1.484 1.484 0 0 0-1.38-.79c-1.139 0-1.87.901-1.87 2.324 0 1.427.724 2.328 1.87 2.328z"/></g><g><path fill="#fff" d="M71.355 5.998c-.772 0-1.207-.567-1.207-1.552 0-.977.435-1.548 1.207-1.548.77 0 1.208.571 1.208 1.548 0 .981-.438 1.552-1.208 1.552zM69.23 4.446a2.134 2.134 0 1 0 4.247 0 2.133 2.133 0 1 0-4.247 0z"/></g><g><path fill="#fff" d="M74.67 2.191h.855v.716h.067c.23-.527.77-.85 1.344-.803a1.465 1.465 0 0 1 1.558 1.675v2.915h-.888V4.002c0-.723-.315-1.083-.972-1.083a1.033 1.033 0 0 0-1.075 1.141v2.634h-.889z"/></g><g><path fill="#fff" d="M83.514 1.07v1.142h.976v.748h-.976v2.316c0 .471.195.678.637.678.113 0 .227-.007.34-.02v.74c-.16.028-.322.043-.484.045-.989 0-1.382-.348-1.382-1.216V2.96h-.715v-.748h.715V1.07z"/></g><g><path fill="#fff" d="M85.7.44h.88v2.481h.071a1.386 1.386 0 0 1 1.373-.806 1.483 1.483 0 0 1 1.551 1.679V6.7h-.89V4.013c0-.72-.335-1.084-.962-1.084a1.052 1.052 0 0 0-1.134 1.142V6.7H85.7z"/></g><g><path fill="#fff" d="M91.634 4.023a1.137 1.137 0 0 1 .338-.822c.22-.218.518-.338.828-.335.307-.007.602.115.813.335.211.22.319.519.296.822zm2.271 1.461a1.08 1.08 0 0 1-1.071.546 1.19 1.19 0 0 1-1.2-1.29v-.05h3.18v-.31c0-1.414-.756-2.27-2.009-2.27a2.077 2.077 0 0 0-2.076 2.353 2.045 2.045 0 0 0 2.08 2.324 1.828 1.828 0 0 0 1.951-1.303z"/></g></g></g></g></svg>