<svg xmlns="http://www.w3.org/2000/svg" width="116" height="28" viewBox="0 0 116 28"><defs><linearGradient id="7yf9d" x1="14.83" x2="-7.92" y1="16.29" y2="39.05" gradientUnits="userSpaceOnUse"><stop offset="0" stop-color="#ff3a44"/><stop offset="1" stop-color="#c31162"/></linearGradient><clipPath id="7yf9a"><path d="M.433 1.543c-.291.308-.463.786-.463 1.405v22.116c0 .62.172 1.097.463 1.404l.073.073 12.39-12.389v-.292L.506 1.47z"/></clipPath><clipPath id="7yf9b"><path d="M12.9 13.851v.292l4.129 4.131.094-.052 4.893-2.78c1.397-.795 1.397-2.095 0-2.889l-4.893-2.78-.093-.053z"/></clipPath><clipPath id="7yf9c"><path d="M.44 26.462c.46.488 1.221.549 2.078.062l14.608-8.3L12.903 14z"/></clipPath><clipPath id="7yf9e"><path d="M.44 1.538l12.463 12.463 4.223-4.224-14.608-8.3c-.402-.229-.783-.337-1.121-.337-.384 0-.713.139-.957.398"/></clipPath></defs><g><g><path fill="#fff" d="M37.416 4.247c0 .838-.248 1.505-.745 2.003-.565.592-1.3.888-2.204.888-.866 0-1.603-.3-2.208-.901-.607-.6-.909-1.345-.909-2.233 0-.889.302-1.633.909-2.234.605-.6 1.342-.9 2.208-.9.429 0 .841.084 1.231.251.391.168.704.391.939.67l-.528.528c-.397-.474-.944-.712-1.642-.712-.632 0-1.178.222-1.639.666-.461.445-.691 1.021-.691 1.731 0 .709.23 1.286.691 1.73a2.278 2.278 0 0 0 1.639.666c.67 0 1.228-.223 1.676-.67.29-.291.458-.695.502-1.215h-2.178v-.721h2.907c.028.157.042.307.042.453"/></g><g><path fill="none" stroke="#fff" stroke-miterlimit="20" stroke-width=".2" d="M37.416 4.247c0 .838-.248 1.505-.745 2.003-.565.592-1.3.888-2.204.888-.866 0-1.603-.3-2.208-.901-.607-.6-.909-1.345-.909-2.233 0-.889.302-1.633.909-2.234.605-.6 1.342-.9 2.208-.9.429 0 .841.084 1.231.251.391.168.704.391.939.67l-.528.528c-.397-.474-.944-.712-1.642-.712-.632 0-1.178.222-1.639.666-.461.445-.691 1.021-.691 1.731 0 .709.23 1.286.691 1.73a2.278 2.278 0 0 0 1.639.666c.67 0 1.228-.223 1.676-.67.29-.291.458-.695.502-1.215h-2.178v0-.721 0h2.907c.028.157.042.307.042.453z"/></g><g><path fill="#fff" d="M42.023 1.737h-2.732v1.902h2.463v.721h-2.463v1.902h2.732V7H38.52V1h3.503z"/></g><g><path fill="none" stroke="#fff" stroke-miterlimit="20" stroke-width=".2" d="M42.023 1.737v0h-2.732v1.902h2.463v.721h-2.463v1.902h2.732V7H38.52v0-6 0h3.503v0z"/></g><g><path fill="#fff" d="M45.277 7h-.771V1.737H42.83V1h4.123v.737h-1.676z"/></g><g><path fill="none" stroke="#fff" stroke-miterlimit="20" stroke-width=".2" d="M45.277 7v0h-.771v0-5.263 0H42.83v0V1v0h4.123v.737h-1.676v0z"/></g><g><path fill="#fff" d="M49.94 7h.771V1h-.771z"/></g><g><path fill="none" stroke="#fff" stroke-miterlimit="20" stroke-width=".2" d="M49.94 7v0h.771v0-6 0h-.771v0z"/></g><g><path fill="#fff" d="M54.127 7h-.771V1.737H51.68V1h4.123v.737h-1.676z"/></g><g><path fill="none" stroke="#fff" stroke-miterlimit="20" stroke-width=".2" d="M54.127 7v0h-.771v0-5.263 0H51.68v0V1v0h4.123v.737h-1.676v0z"/></g><g><path fill="#fff" d="M63.613 6.228c-.59.607-1.323.91-2.2.91-.877 0-1.61-.303-2.199-.91-.59-.606-.884-1.347-.884-2.224 0-.877.294-1.619.884-2.225.589-.606 1.322-.909 2.199-.909.872 0 1.603.304 2.196.913.592.609.888 1.349.888 2.221zm-3.83-.501c.443.45.987.674 1.63.674.642 0 1.187-.224 1.63-.674.445-.45.668-1.025.668-1.723 0-.698-.223-1.274-.667-1.723a2.204 2.204 0 0 0-1.631-.675c-.643 0-1.187.225-1.63.675-.444.45-.667 1.025-.667 1.723z"/></g><g><path fill="none" stroke="#fff" stroke-miterlimit="20" stroke-width=".2" d="M63.613 6.228c-.59.607-1.323.91-2.2.91-.877 0-1.61-.303-2.199-.91-.59-.606-.884-1.347-.884-2.224 0-.877.294-1.619.884-2.225.589-.606 1.322-.909 2.199-.909.872 0 1.603.304 2.196.913.592.609.888 1.349.888 2.221 0 .877-.295 1.618-.884 2.224zm-3.83-.501c.443.45.987.674 1.63.674.642 0 1.187-.224 1.63-.674.445-.45.668-1.025.668-1.723 0-.698-.223-1.274-.667-1.723a2.204 2.204 0 0 0-1.631-.675c-.643 0-1.187.225-1.63.675-.444.45-.667 1.025-.667 1.723 0 .698.223 1.273.666 1.723z"/></g><g><path fill="#fff" d="M65.58 7V1h.938l2.916 4.667h.034l-.034-1.156V1h.772v6h-.805l-3.05-4.894h-.034l.034 1.157V7z"/></g><g><path fill="none" stroke="#fff" stroke-miterlimit="20" stroke-width=".2" d="M65.58 7v0-6 0h.938v0l2.916 4.667v0h.034v0l-.034-1.156v0V1v0h.772v6h-.805v0l-3.05-4.894v0h-.034v0l.034 1.157V7z"/></g><g><path fill="#fff" d="M58.13 15.754c2.35 0 4.264 1.789 4.264 4.254 0 2.449-1.915 4.253-4.264 4.253-2.35 0-4.264-1.804-4.264-4.253 0-2.465 1.915-4.254 4.264-4.254zm.01 6.841c1.292 0 2.405-1.065 2.405-2.582 0-1.534-1.113-2.583-2.405-2.583-1.292 0-2.406 1.049-2.406 2.583 0 1.517 1.114 2.582 2.406 2.582zm-9.319-6.841c2.353 0 4.27 1.789 4.27 4.254 0 2.449-1.917 4.253-4.27 4.253-2.352 0-4.269-1.804-4.269-4.253 0-2.465 1.917-4.254 4.269-4.254zm0 6.841c1.289 0 2.401-1.065 2.401-2.582 0-1.534-1.112-2.583-2.401-2.583-1.288 0-2.4 1.049-2.4 2.583 0 1.517 1.112 2.582 2.4 2.582zm-5.005-5.535c.065.322.097.709.097 1.127 0 1.353-.371 3.029-1.563 4.221-1.16 1.208-2.642 1.853-4.607 1.853-3.642 0-6.703-2.965-6.703-6.605 0-3.641 3.061-6.606 6.703-6.606 2.014 0 3.447.79 4.527 1.821l-1.273 1.273c-.773-.726-1.82-1.29-3.254-1.29-2.659 0-4.737 2.144-4.737 4.802 0 2.658 2.078 4.801 4.737 4.801 1.723 0 2.706-.693 3.335-1.322.515-.515.854-1.256.982-2.271h-4.317V17.06zm39.418 1.884l-5.679 2.352c.434.854 1.11 1.289 2.059 1.289.95 0 1.609-.467 2.092-1.176l1.448.967c-.467.693-1.594 1.885-3.54 1.885-2.413 0-4.216-1.869-4.216-4.253 0-2.53 1.819-4.254 4.007-4.254 2.204 0 3.282 1.757 3.636 2.707zm-2.18-.644c-.21-.531-.838-.902-1.58-.902-.95 0-2.271.837-2.223 2.481zm-8.426-6.798h1.868v12.501h-1.868zm-3.062 4.51h1.773v7.642c0 3.145-1.853 4.435-4.044 4.435-2.063 0-3.303-1.387-3.77-2.515l1.627-.678c.29.694.999 1.516 2.143 1.516 1.401 0 2.271-.87 2.271-2.5V23.3h-.064c-.419.517-1.225.968-2.239.968-2.127 0-4.077-1.855-4.077-4.24 0-2.403 1.95-4.274 4.077-4.274 1.014 0 1.82.452 2.239.952h.064zm-2.142 6.583c1.272 0 2.271-1.081 2.271-2.566 0-1.502-.999-2.599-2.271-2.599-1.289 0-2.368 1.097-2.368 2.599 0 1.485 1.079 2.566 2.368 2.566zM91.81 11.501c2.07 0 4.106 1.498 4.106 3.883s-2.035 3.883-4.106 3.883h-2.609v4.736h-1.867V11.501zm.043 6.036c1.395 0 2.187-1.177 2.187-2.148 0-.99-.792-2.147-2.187-2.147h-2.654v4.295zm11.532-1.806c2.138 0 3.796 1.239 3.796 3.458v4.793h-1.802v-.965h-.065c-.433.66-1.126 1.223-2.38 1.223-1.64 0-3.104-1.078-3.104-2.751 0-1.833 1.817-2.814 3.603-2.814.884 0 1.608.289 1.946.482v-.129c-.016-1.029-.997-1.608-1.962-1.608-.692 0-1.351.225-1.705.917l-1.656-.692c.579-1.318 1.978-1.914 3.329-1.914zm-.226 6.842a2.259 2.259 0 0 0 2.22-1.97c-.498-.24-.885-.417-1.704-.417-.917 0-1.979.37-1.979 1.33 0 .752.853 1.057 1.463 1.057zm12.658-6.568l-5.131 11.779h-1.946l1.899-4.21-3.33-7.569h2.01l2.22 5.415h.064l2.139-5.415zm-18.882-4.503h1.855v12.501h-1.855z"/></g><g><g/><g clip-path="url(#7yf9a)"><path fill="#00d2ff" d="M.433 1.543c-.291.308-.463.786-.463 1.405v22.116c0 .62.172 1.097.463 1.404l.073.073 12.39-12.389v-.292L.506 1.47z"/></g></g><g><g/><g clip-path="url(#7yf9b)"><path fill="#ffc802" d="M12.9 13.851v.292l4.129 4.131.094-.052 4.893-2.78c1.397-.795 1.397-2.095 0-2.889l-4.893-2.78-.093-.053z"/></g></g><g><g/><g clip-path="url(#7yf9c)"><path fill="url(#7yf9d)" d="M.44 26.462c.46.488 1.221.549 2.078.062l14.608-8.3L12.903 14z"/></g></g><g><g/><g clip-path="url(#7yf9e)"><path fill="#00f076" d="M.44 1.538l12.463 12.463 4.223-4.224-14.608-8.3c-.402-.229-.783-.337-1.121-.337-.384 0-.713.139-.957.398"/></g></g><g><g><path d="M17.033 18.13L2.518 26.378c-.812.46-1.538.43-2.004.01l-.074.075.073.072.001-.001c.466.42 1.192.451 2.004-.01l14.608-8.301z"/></g><g><path d="M.433 26.315c-.291-.308-.463-.786-.463-1.405v.146c0 .619.172 1.097.463 1.405l.074-.074z"/></g><g><path d="M22.016 15.297L17.03 18.13l.093.093 4.893-2.78c.699-.397 1.048-.92 1.048-1.443-.059.473-.414.937-1.048 1.297"/></g><g><path fill="#fff" d="M2.511 1.622l19.501 11.08c.634.36.989.824 1.048 1.298.001-.523-.349-1.047-1.048-1.444L2.511 1.476C1.113.682-.03 1.342-.03 2.942v.146c0-1.6 1.143-2.26 2.541-1.466"/></g></g></g></svg>