<svg xmlns="http://www.w3.org/2000/svg" width="77" height="80" viewBox="0 0 77 80"><g><g><g><path fill="#2ada7a" d="M15.762 43.38a1.674 1.674 0 0 0-1.82.359l-5.495 5.479-5.496-5.48a1.674 1.674 0 0 0-2.36-.002 1.66 1.66 0 0 0-.491 1.18v33.269c0 .918.747 1.663 1.67 1.663h13.354c.922 0 1.67-.745 1.67-1.663V44.916c0-.673-.408-1.28-1.032-1.537z"/></g><g><path fill="#23cf71" d="M29.669 30.427a1.674 1.674 0 0 0-2.36 0l-6.678 6.654a1.66 1.66 0 0 0-.491 1.177V78.18c0 .92.747 1.664 1.67 1.664h13.354c.922 0 1.67-.745 1.67-1.664V38.258a1.66 1.66 0 0 0-.488-1.177z"/></g><g><path fill="#14b45c" d="M49.699 23.777a1.674 1.674 0 0 0-2.36 0l-6.678 6.654a1.66 1.66 0 0 0-.491 1.177v46.576c0 .919.747 1.664 1.67 1.664h13.354c.922 0 1.67-.745 1.67-1.664V31.608a1.66 1.66 0 0 0-.488-1.177z"/></g><g><path fill="#079d4a" d="M76.406 20.443l-3.338-3.327a1.673 1.673 0 0 0-1.182-.486h-3.339c-.443 0-.868.174-1.182.486l-6.678 6.654a1.66 1.66 0 0 0-.487 1.177v53.23c0 .918.747 1.663 1.67 1.663h13.354c.922 0 1.67-.745 1.67-1.663V21.62a1.66 1.66 0 0 0-.488-1.177z"/></g><g><path fill="#151821" d="M75.23 0H65.214a1.66 1.66 0 1 0-1.182 2.841l3.83 3.813-12.665 12.618-5.495-5.479a1.674 1.674 0 0 0-2.36 0L35.164 25.926l-5.496-5.48a1.674 1.674 0 0 0-2.36 0L8.454 39.234l-5.496-5.479a1.674 1.674 0 0 0-2.36.04 1.66 1.66 0 0 0 0 2.312l6.677 6.654c.652.65 1.709.65 2.36 0l18.851-18.784 5.496 5.476c.652.65 1.708.65 2.36 0l12.177-12.13 5.495 5.477c.652.65 1.709.65 2.361 0L70.222 9.006l3.826 3.812a1.673 1.673 0 0 0 1.82.363 1.663 1.663 0 0 0 1.031-1.537v-9.98C76.9.743 76.152 0 75.23 0z"/></g></g></g></svg>