<svg xmlns="http://www.w3.org/2000/svg" width="70" height="80" viewBox="0 0 70 80"><g><g><g><path fill="#14b45c" d="M68.66 10.053L35.401.073a1.597 1.597 0 0 0-.955 0l-33.259 9.98A1.664 1.664 0 0 0 0 11.647v36.595C0 62.95 22.423 76.035 34.43 79.774c.325.102.673.102.998 0 11.993-3.74 34.416-16.824 34.416-31.532V11.647c0-.734-.48-1.382-1.184-1.594z"/></g><g><path fill="#151720" d="M34.922 56.555c10.103 0 18.293-8.192 18.293-18.297 0-10.106-8.19-18.298-18.293-18.298-10.102 0-18.292 8.192-18.292 18.298 0 10.105 8.19 18.297 18.292 18.297z"/></g><g><path fill="#fafafa" d="M31.596 46.583c-.441 0-.865-.174-1.177-.486l-6.652-6.653a1.664 1.664 0 0 1 2.351-2.353l5.478 5.476 12.126-12.13a1.663 1.663 0 1 1 2.352 2.353L32.77 46.097a1.663 1.663 0 0 1-1.174.486z"/></g></g></g></svg>