<svg xmlns="http://www.w3.org/2000/svg" width="46" height="36" viewBox="0 0 46 36"><g><g opacity=".2" transform="rotate(-10 23 18)"><path fill="#14b45c" d="M2 10.448A8.448 8.448 0 0 1 10.448 2h25.104A8.448 8.448 0 0 1 44 10.448v15.104A8.448 8.448 0 0 1 35.552 34H10.448A8.448 8.448 0 0 1 2 25.552z"/></g><g><path fill="#14b45c" d="M2 11a8 8 0 0 1 8-8h24a8 8 0 0 1 8 8v14a8 8 0 0 1-8 8H10a8 8 0 0 1-8-8zm22.2 11.333l-4.043-11.792c-.247-.721-1.267-.721-1.514 0L16.43 17H13.8a.8.8 0 1 0 0 1.6H17a.8.8 0 0 0 .757-.54l1.643-4.793 4.043 11.792c.247.721 1.267.721 1.514 0L27.17 18.6H29.8a.8.8 0 1 0 0-1.6h-3.2a.8.8 0 0 0-.757.54z"/></g></g></svg>