<svg xmlns="http://www.w3.org/2000/svg" width="95" height="20" viewBox="0 0 95 20"><g><g><path fill="#fff" d="M88.222 13.442c1.914 0 3.058-1.474 3.058-3.212v-.044c0-1.738-1.254-3.256-3.102-3.256-1.914 0-3.058 1.474-3.058 3.212v.044c0 1.738 1.254 3.256 3.102 3.256zm-.044 2.872c-3.652 0-6.358-2.704-6.358-6.089v-.044c0-3.385 2.728-6.133 6.402-6.133 3.652 0 6.358 2.704 6.358 6.089v.044c0 3.385-2.728 6.133-6.402 6.133zm-12.276-.254V4.268h3.354V16.06zm-.088-13.09V0h3.52v2.97zm-6.49 13.09v-3.52h3.574v3.52zm-8.296-2.628c1.562 0 2.882-1.274 2.882-3.251v-.044c0-1.955-1.32-3.251-2.882-3.251s-2.86 1.296-2.86 3.251v.044c0 1.955 1.298 3.251 2.86 3.251zm.852 2.848c-1.78 0-2.88-.814-3.67-1.76v1.54h-3.342V0h3.341v5.962c.814-1.1 1.935-1.914 3.671-1.914 2.748 0 5.364 2.156 5.364 6.094v.044c0 3.938-2.572 6.094-5.364 6.094zm-15.482-1.496c2.2 0 4.004-1.628 4.004-4.378v-.044c0-2.684-1.848-4.4-4.004-4.4-2.112 0-4.114 1.782-4.114 4.378v.044c0 2.64 2.002 4.4 4.114 4.4zm-5.742 4.796V4.686h1.694v2.288c.924-1.364 2.266-2.53 4.356-2.53 2.728 0 5.434 2.156 5.434 5.896v.044c0 3.718-2.684 5.918-5.434 5.918-2.112 0-3.476-1.144-4.356-2.42v5.698zM28.644 9.702h7.326c-.198-2.068-1.386-3.828-3.63-3.828-1.958 0-3.454 1.628-3.696 3.828zm0 1.364c.242 2.398 2.002 3.784 4.004 3.784 1.562 0 2.662-.638 3.586-1.606l1.056.946c-1.144 1.276-2.53 2.134-4.686 2.134-3.124 0-5.676-2.398-5.676-5.94 0-3.3 2.31-5.94 5.456-5.94 3.366 0 5.302 2.684 5.302 6.028 0 .154 0 .33-.022.594zM15.62 9.702h7.326c-.198-2.068-1.386-3.828-3.63-3.828-1.958 0-3.454 1.628-3.696 3.828zm0 1.364c.242 2.398 2.002 3.784 4.004 3.784 1.562 0 2.662-.638 3.586-1.606l1.056.946c-1.144 1.276-2.53 2.134-4.686 2.134-3.124 0-5.676-2.398-5.676-5.94 0-3.3 2.31-5.94 5.456-5.94 3.366 0 5.302 2.684 5.302 6.028 0 .154 0 .33-.022.594zm-9.878 3.718c2.2 0 4.004-1.628 4.004-4.378v-.044c0-2.684-1.848-4.4-4.004-4.4-2.112 0-4.114 1.782-4.114 4.378v.044c0 2.64 2.002 4.4 4.114 4.4zm.308 1.518c-2.112 0-3.476-1.144-4.356-2.42v2.178H0V0h1.694v6.974c.924-1.364 2.266-2.53 4.356-2.53 2.728 0 5.434 2.156 5.434 5.896v.044c0 3.718-2.684 5.918-5.434 5.918z"/></g></g></svg>